<svg width="57" height="49" viewBox="0 0 57 49" fill="none" xmlns="http://www.w3.org/2000/svg">
<path fill-rule="evenodd" clip-rule="evenodd" d="M27.7733 0.234478C28.1961 -0.120852 28.8269 -0.0661586 29.1822 0.35664C29.5375 0.779438 29.4828 1.41024 29.06 1.76557L3.74412 23.0417H55.8333C56.3856 23.0417 56.8333 23.4894 56.8333 24.0417C56.8333 24.594 56.3856 25.0417 55.8333 25.0417H3.74416L29.06 46.3178C29.4828 46.6731 29.5375 47.3039 29.1822 47.7267C28.8269 48.1495 28.1961 48.2042 27.7733 47.8489L0.364418 24.8138C0.141861 24.6304 -2.28882e-05 24.3526 -1.52588e-05 24.0417C-1.52588e-05 23.7833 0.099926 23.5364 0.276367 23.3515C0.301575 23.3251 0.328342 23.2999 0.356602 23.2761M27.7733 0.234478L0.361328 23.2722Z" fill="white"/>
</svg>
