<svg width="57" height="49" viewBox="0 0 57 49" fill="none" xmlns="http://www.w3.org/2000/svg">
<path fill-rule="evenodd" clip-rule="evenodd" d="M29.06 0.234478C28.6372 -0.120853 28.0064 -0.066159 27.6511 0.35664C27.2958 0.779438 27.3505 1.41024 27.7733 1.76557L53.0892 23.0417H1C0.447715 23.0417 0 23.4894 0 24.0417C0 24.594 0.447715 25.0417 1 25.0417H53.0891L27.7733 46.3178C27.3505 46.6731 27.2958 47.3039 27.6511 47.7267C28.0064 48.1495 28.6372 48.2042 29.06 47.8489L56.4689 24.8138C56.6915 24.6304 56.8333 24.3526 56.8333 24.0417C56.8333 23.7833 56.7334 23.5364 56.5569 23.3515C56.5317 23.3251 56.505 23.2999 56.4767 23.2761M29.06 0.234478L56.472 23.2722L29.06 0.234478Z" fill="white"/>
</svg>
