<svg width="39" height="49" viewBox="0 0 39 49" fill="none" xmlns="http://www.w3.org/2000/svg">
<path fill-rule="evenodd" clip-rule="evenodd" d="M1.80207 2.21869C2.84915 1.17162 4.26929 0.583374 5.75008 0.583374H24.0833H24.0834L24.1006 0.583521C24.3596 0.587962 24.607 0.69278 24.7905 0.876267L38.5405 14.6263C38.5955 14.6812 38.6434 14.742 38.6837 14.807C38.7503 14.9145 38.7972 15.0355 38.8191 15.165C38.8286 15.2203 38.8334 15.2766 38.8334 15.3334V42.8334C38.8334 44.3142 38.2452 45.7343 37.1981 46.7814C36.151 47.8285 34.7309 48.4167 33.2501 48.4167H5.75008C4.26929 48.4167 2.84915 47.8285 1.80207 46.7814C0.75499 45.7343 0.166748 44.3142 0.166748 42.8334V6.16671C0.166748 4.68592 0.75499 3.26577 1.80207 2.21869ZM5.75008 2.58337H23.0833V15.3334C23.0833 15.8857 23.531 16.3334 24.0833 16.3334H36.8334V42.8334C36.8334 43.7837 36.4559 44.6952 35.7839 45.3672C35.1119 46.0392 34.2004 46.4167 33.2501 46.4167H5.75008C4.79972 46.4167 3.88829 46.0392 3.21628 45.3672C2.54428 44.6952 2.16675 43.7837 2.16675 42.8334V6.16671C2.16675 5.21635 2.54428 4.30491 3.21628 3.63291C3.88829 2.9609 4.79972 2.58337 5.75008 2.58337ZM25.0833 3.99743L35.4192 14.3334H25.0833V3.99743ZM10.3333 25.7916C9.78097 25.7916 9.33325 26.2393 9.33325 26.7916C9.33325 27.3439 9.78097 27.7916 10.3333 27.7916H28.6666C29.2189 27.7916 29.6666 27.3439 29.6666 26.7916C29.6666 26.2393 29.2189 25.7916 28.6666 25.7916H10.3333ZM9.33325 35.9584C9.33325 35.4061 9.78097 34.9584 10.3333 34.9584H28.6666C29.2189 34.9584 29.6666 35.4061 29.6666 35.9584C29.6666 36.5107 29.2189 36.9584 28.6666 36.9584H10.3333C9.78097 36.9584 9.33325 36.5107 9.33325 35.9584ZM10.3333 16.625C9.78097 16.625 9.33325 17.0727 9.33325 17.625C9.33325 18.1773 9.78097 18.625 10.3333 18.625H12.6249H14.9166C15.4689 18.625 15.9166 18.1773 15.9166 17.625C15.9166 17.0727 15.4689 16.625 14.9166 16.625H12.6249H10.3333Z" fill="white"/>
</svg>
