<svg width="49" height="49" viewBox="0 0 49 49" fill="none" xmlns="http://www.w3.org/2000/svg">
<path fill-rule="evenodd" clip-rule="evenodd" d="M13.0417 2.58337C7.2657 2.58337 2.58334 7.26573 2.58334 13.0417V35.9584C2.58334 41.7343 7.2657 46.4167 13.0417 46.4167H35.9583C41.7343 46.4167 46.4167 41.7343 46.4167 35.9584V13.0417C46.4167 7.26573 41.7343 2.58337 35.9583 2.58337H13.0417ZM0.583344 13.0417C0.583344 6.16116 6.16113 0.583374 13.0417 0.583374H35.9583C42.8389 0.583374 48.4167 6.16116 48.4167 13.0417V35.9584C48.4167 42.8389 42.8389 48.4167 35.9583 48.4167H13.0417C6.16113 48.4167 0.583344 42.8389 0.583344 35.9584V13.0417ZM25.7971 16.3225C24.0979 16.0705 22.3626 16.3607 20.8378 17.1519C19.3131 17.943 18.0767 19.1948 17.3044 20.7292C16.5321 22.2635 16.2633 24.0023 16.5362 25.6982C16.8091 27.3942 17.6098 28.9609 18.8245 30.1755C20.0391 31.3901 21.6058 32.1909 23.3017 32.4638C24.9977 32.7367 26.7365 32.4678 28.2708 31.6956C29.8052 30.9233 31.0569 29.6868 31.8481 28.1621C32.6392 26.6374 32.9295 24.9021 32.6775 23.2029C32.4205 21.4697 31.6128 19.8651 30.3739 18.6261C29.1349 17.3871 27.5303 16.5795 25.7971 16.3225ZM19.9167 15.3766C21.8148 14.3917 23.9752 14.0304 26.0905 14.3441C28.2481 14.6641 30.2457 15.6695 31.7881 17.2119C33.3305 18.7543 34.3359 20.7518 34.6559 22.9095C34.9695 25.0248 34.6082 27.1852 33.6233 29.0833C32.6384 30.9814 31.0801 32.5206 29.17 33.482C27.2599 34.4434 25.0953 34.7781 22.984 34.4384C20.8727 34.0986 18.9223 33.1018 17.4103 31.5897C15.8982 30.0776 14.9014 28.1273 14.5616 26.016C14.2219 23.9047 14.5565 21.7401 15.518 19.83C16.4794 17.9199 18.0186 16.3615 19.9167 15.3766ZM37.1042 10.8959C36.5519 10.8959 36.1042 11.3436 36.1042 11.8959C36.1042 12.4482 36.5519 12.8959 37.1042 12.8959H37.1271C37.6794 12.8959 38.1271 12.4482 38.1271 11.8959C38.1271 11.3436 37.6794 10.8959 37.1271 10.8959H37.1042Z" fill="white"/>
</svg>
