<svg width="50" height="63" viewBox="0 0 50 63" fill="none" xmlns="http://www.w3.org/2000/svg">
<path fill-rule="evenodd" clip-rule="evenodd" d="M48.9029 31.9048C49.2425 31.4692 49.1647 30.8409 48.7291 30.5013C48.2936 30.1617 47.6652 30.2395 47.3256 30.675L25.4824 58.6908L25.4824 1.39233C25.4824 0.840049 25.0347 0.392334 24.4824 0.392334C23.9302 0.392334 23.4824 0.840049 23.4824 1.39233L23.4824 57.7198L2.39631 30.675C2.05673 30.2395 1.42835 30.1617 0.992808 30.5013C0.557261 30.8409 0.479472 31.4692 0.819056 31.9048L23.4824 60.9725V61.041C23.4824 61.5933 23.9302 62.041 24.4824 62.041C24.4834 62.041 24.4843 62.041 24.4853 62.041C24.6032 62.0888 24.7305 62.1143 24.861 62.1143C25.1692 62.1143 25.4601 61.9722 25.6496 61.7291L48.9029 31.9048Z" fill="white"/>
</svg>
