<svg width="55" height="55" viewBox="0 0 55 55" fill="none" xmlns="http://www.w3.org/2000/svg">
<path d="M51.6542 14.7125C51.3819 13.6249 50.8275 12.6284 50.0469 11.8236C49.2663 11.0188 48.2871 10.4343 47.2083 10.1291C43.2667 9.16663 27.5 9.16663 27.5 9.16663C27.5 9.16663 11.7333 9.16663 7.79165 10.2208C6.71285 10.526 5.73369 11.1105 4.95307 11.9153C4.17246 12.72 3.61804 13.7165 3.34582 14.8041C2.62444 18.8044 2.27157 22.8623 2.29165 26.927C2.26594 31.0224 2.61883 35.1113 3.34582 39.1416C3.64594 40.1954 4.21277 41.154 4.99157 41.9248C5.77036 42.6956 6.73478 43.2524 7.79165 43.5416C11.7333 44.5958 27.5 44.5958 27.5 44.5958C27.5 44.5958 43.2667 44.5958 47.2083 43.5416C48.2871 43.2364 49.2663 42.6519 50.0469 41.8472C50.8275 41.0424 51.3819 40.0459 51.6542 38.9583C52.37 34.9882 52.7228 30.9611 52.7083 26.927C52.734 22.8317 52.3812 18.7428 51.6542 14.7125V14.7125Z" stroke="white" stroke-width="2" stroke-linecap="round" stroke-linejoin="round"/>
<path d="M22.3438 34.4209L35.5208 26.9271L22.3438 19.4333V34.4209Z" stroke="white" stroke-width="2" stroke-linecap="round" stroke-linejoin="round"/>
</svg>
